<svg width="200" height="200" viewBox="0 0 200 200" fill="none" xmlns="http://www.w3.org/2000/svg">
<path fill-rule="evenodd" clip-rule="evenodd" d="M110.9 117.5C112.4 119.4 114.2 121.55 114.2 121.55C125.25 121.2 129.5 113.95 129.5 113.95C129.5 97.85 122.3 84.8 122.3 84.8C115.1 79.4 108.25 79.55 108.25 79.55L107.55 80.35C116.05 82.95 120 86.7 120 86.7C114.8 83.85 109.7 82.45 104.95 81.9C101.35 81.5 97.9 81.6 94.85 82C94.5881 82 94.3643 82.0381 94.1121 82.0811L94 82.1C92.25 82.25 88 82.9 82.65 85.25C80.8 86.1 79.7 86.7 79.7 86.7C79.7 86.7 83.85 82.75 92.85 80.15L92.35 79.55C92.35 79.55 85.5 79.4 78.3 84.8C78.3 84.8 71.1 97.85 71.1 113.95C71.1 113.95 75.3 121.2 86.35 121.55C86.35 121.55 88.2 119.3 89.7 117.4C83.35 115.5 80.95 111.5 80.95 111.5C80.95 111.5 81.45 111.85 82.35 112.35C82.4 112.4 82.45 112.45 82.55 112.5C82.625 112.55 82.7 112.588 82.775 112.625C82.85 112.663 82.925 112.7 83 112.75C84.25 113.45 85.5 114 86.65 114.45C88.7 115.25 91.15 116.05 94 116.6C97.75 117.3 102.15 117.55 106.95 116.65C109.3 116.25 111.7 115.55 114.2 114.5C115.95 113.85 117.9 112.9 119.95 111.55C119.95 111.55 117.45 115.65 110.9 117.5ZM85.85 103.75C85.85 100.7 88.1 98.2 90.95 98.2C93.8 98.2 96.1 100.7 96.05 103.75C96.05 106.8 93.8 109.3 90.95 109.3C88.15 109.3 85.85 106.8 85.85 103.75ZM104.1 103.75C104.1 100.7 106.35 98.2 109.2 98.2C112.05 98.2 114.3 100.7 114.3 103.75C114.3 106.8 112.05 109.3 109.2 109.3C106.4 109.3 104.1 106.8 104.1 103.75Z" fill="#87DC85"/>
<path fill-rule="evenodd" clip-rule="evenodd" d="M100 0C155.228 0 200 44.7715 200 100C200 155.228 155.228 200 100 200C44.7715 200 0 155.228 0 100C0 44.7715 44.7715 0 100 0ZM56.25 66.55C56.25 60.85 60.85 56.25 66.5 56.25H133.5C139.15 56.25 143.75 60.85 143.75 66.55V156.25L133 146.75L126.95 141.15L120.55 135.2L123.2 144.45H66.5C60.85 144.45 56.25 139.85 56.25 134.15V66.55Z" fill="#87DC85"/>
</svg>
