<svg width="200" height="200" viewBox="0 0 200 200" fill="none" xmlns="http://www.w3.org/2000/svg">
<path d="M100.765 3.28733C98.418 3.28733 93.8393 3.53266 93.6527 3.544C94.54 3.78066 25.1687 39.3707 25.1687 38.9973C25.1473 39.118 25.1147 39.218 25.0513 39.2967C11.2993 56.1193 3.13667 77.49 3.13667 100.914C3.13667 120.219 8.76134 138.201 18.4327 153.351C18.498 153.316 43.058 177.105 42.7573 179.433C58.9793 191.433 79.0367 198.536 100.761 198.536C108.349 198.536 115.721 197.64 122.815 196.006C122.685 195.237 122.568 194.467 122.463 193.708L121.181 184.708C120.795 182.246 118.778 165.513 118.778 165.513L118.771 165.463L120.917 164.639C120.917 164.639 123.739 164.756 123.669 164.765C123.669 164.765 126.529 181.594 127.027 184.513L127.565 187.603C127.773 188.848 127.948 190.082 128.205 191.361C128.385 192.424 128.545 193.443 128.702 194.459C131.016 193.763 133.296 192.991 135.533 192.137C135.193 190.224 134.823 188.253 134.791 187.961L133.639 181.115C132.116 174.051 131.145 168.812 130.434 165.327C130.333 164.826 130.143 163.936 130.143 163.936L132.347 163.055L135.253 163.281C135.253 163.281 138.961 179.508 139.887 184.414L140.945 189.876C142.933 188.977 144.903 188.026 146.815 186.997L146.203 184.195C146.138 183.923 146.067 183.597 145.984 183.235C144.739 177.753 141.433 162.485 141.433 162.485L144.084 161.443L146.674 161.808H146.687C146.687 161.808 150.014 175.884 152.173 183.895C155.881 181.594 159.434 179.067 162.783 176.304C162.783 176.304 193.699 130.027 193.92 130.179C196.818 120.941 198.387 111.11 198.387 100.913C198.387 46.9973 154.679 3.28733 100.765 3.28733Z" fill="#A3080C"/>
<path d="M125.223 51.8887C125.223 51.8887 113.029 28.8953 108.055 25.444C103.087 21.9927 94.8987 19.838 89.222 20.5553C82.0347 21.4627 65.596 30.162 64.5033 30.4493C64.5113 30.5333 58.3787 38.098 56.7773 45.8887C56.4213 47.62 50.1107 75.222 50.1107 75.222L62.1107 109.889L104.875 130.291L120.555 113.222C120.555 113.222 122.556 96.3333 126.778 83.6667C131 71 129.667 64.1113 129.667 64.1113L125.223 51.8887Z" fill="#FFF1E2"/>
<path d="M76.368 140.252C76.238 140.301 76.1193 140.354 76.008 140.404C76.1193 140.354 76.238 140.301 76.368 140.252Z" fill="white"/>
<path d="M72.8473 74.2273C72.1687 74.614 71.6667 74.7047 71.3533 74.8713C71.0393 75.0427 70.544 75.4107 70.6667 76.0687C70.796 76.73 70.9773 76.9447 71.0407 77.4547C71.1007 77.9593 70.858 78.874 70.2713 79.9127C69.694 80.954 68.77 81.706 68.2453 82.0107C67.7293 82.3193 67.4127 82.4027 67.1193 82.5573C67.0527 82.588 66.9927 82.7473 66.9327 83.0673C66.93 83.07 66.93 83.07 66.9267 83.0733C66.964 83.044 67.0053 83.0167 67.0627 82.9947C67.1753 82.9467 67.4073 82.9407 67.616 82.902C67.818 82.8647 67.9667 82.8173 68.0407 82.8073C68.1193 82.798 68.5873 82.732 68.666 82.7147C68.7447 82.6993 70.1627 82.4027 71.0413 81.998C71.9153 81.5913 73.45 80.8513 74.3293 79.7887C74.9753 79.0107 75.7533 77.594 75.8293 76.188C75.8473 75.8973 75.844 75.7167 75.844 75.7167C75.844 75.7167 75.8473 75.7167 75.8473 75.7133C75.8573 75.7133 75.866 75.7107 75.8753 75.7107C75.73 75.7047 75.6033 75.6567 75.5 75.572C75.2647 75.388 75.0747 75.252 74.3533 74.4813C73.8893 73.984 73.9213 73.6193 74.172 73.2027C74.166 73.212 74.1553 73.2213 74.1487 73.2307C73.9347 73.4307 73.5173 73.8413 72.8473 74.2273Z" fill="white"/>
<path d="M108.699 69.632C108.699 69.632 108.303 69.666 108.167 69.726C108.059 69.7707 107.855 69.8467 107.716 70.0333C107.577 70.2233 107.545 70.5553 107.837 70.912C108.133 71.2673 108.541 71.9313 108.507 72.5C108.486 72.75 108.523 73.5673 108.257 74.156C107.961 74.8233 107.618 75.4813 107.383 75.778C107.247 75.9527 106.619 76.6473 106.527 77.1393C106.502 77.2427 106.527 77.3573 106.575 77.4653C106.575 77.4653 106.583 77.4593 106.583 77.468C106.579 77.4713 106.583 77.4773 106.579 77.4833C106.592 77.4447 106.607 77.4073 106.638 77.372C106.795 77.196 107.114 77.018 107.67 76.8467C108.407 76.6133 108.931 76.3353 109.339 76.0247C109.289 76.082 109.277 76.1487 109.245 76.2147C109.288 76.1127 109.335 76.012 109.427 75.932C109.646 75.7433 112.539 73.8013 112.613 70.666C112.641 69.4887 111.114 69.3333 110.478 69.312C110.005 69.292 109.115 69.7253 108.738 69.634C108.732 69.6313 108.721 69.6213 108.707 69.6187C108.713 69.6187 108.713 69.6213 108.713 69.6213C108.714 69.6287 108.702 69.6287 108.699 69.632Z" fill="white"/>
<path d="M77.8887 91.2773C77.8887 91.2773 89.3887 94.8333 94.8887 88.444C100.389 82.0553 109.889 91.8333 110.499 94.722C111.111 97.6107 96.222 105.611 91.722 105.777C87.222 105.944 69.3887 103.555 69.3887 101.722C69.3887 99.8887 77.8887 91.2773 77.8887 91.2773Z" fill="white"/>
<path d="M125.083 45.5833C123.255 26.1887 114.331 16.468 107.917 11.75C101.176 7.30867 85.1407 3.39667 77.5833 3.75C68.6667 4.16667 48.0747 13.8927 47.278 14.6113C46.5187 15.304 32.7087 38.396 34.4167 42.5213C36.1247 46.6467 38.5447 66.13 39.3333 67.6947C39.5733 68.1633 43.5127 80.8567 46.1113 80.3893C48.7307 79.918 51.1727 68.3413 51.056 67.4447C50.7227 64.8893 46.0847 53.374 46.4447 51.75C46.8093 50.1307 59.1967 30.7367 60.0833 30.0553C60.7087 29.5793 81.9573 26.9367 82.0807 27.142C82.078 27.136 82.078 27.1293 82.0693 27.1233L82.0667 27.12C83.552 25.8253 86.9967 22.4127 90.0747 22.5353C93.15 22.662 101.943 23.7607 106.911 27.216C111.885 30.6673 113.421 34.046 113.843 34.9913C113.839 34.9913 113.833 34.996 113.83 34.996C113.997 35.0207 120.916 50.75 122.944 50.806C124.297 50.8427 125.306 47.9147 125.083 45.5833Z" fill="white"/>
<path d="M116.475 58.4787C115.737 58.5647 113.719 58.7487 113.497 58.7767C113.101 58.828 113.111 59.052 113.135 59.22C113.156 59.3933 113.219 60.0573 113.243 60.3433C113.267 60.6273 113.564 60.794 113.868 60.7693C114.174 60.748 116.104 60.5733 116.392 60.5287C116.673 60.4827 116.951 60.2447 116.948 60.0173C116.942 59.7887 116.945 59.1847 116.942 58.9407C116.935 58.6947 116.753 58.4473 116.475 58.4787Z" fill="white"/>
<path d="M36.1827 151.223C36.566 151.307 36.9747 151.4 37.3693 151.492C36.4873 151.287 35.528 151.078 34.978 150.942C34.706 150.873 34.278 150.834 33.7827 150.844C32.956 150.862 31.9353 151.024 31.1113 151.438C30.0693 151.956 23.4493 155.313 20.6747 156.714C23.8507 161.265 27.3947 165.533 31.28 169.475C31.5227 168.474 35.862 163.921 36.4727 161.252C37.3087 157.595 35.228 152.768 36.1827 151.223Z" fill="white"/>
<path d="M146.677 161.811L141.445 162.486C141.445 162.486 145.209 179.861 146.216 184.195L146.823 186.998C148.643 186.018 150.423 184.983 152.171 183.896C150.009 175.885 146.681 161.811 146.681 161.811H146.677V161.811Z" fill="white"/>
<path d="M176.991 92.292C174.349 94.288 172.886 96.984 172.894 99.682C172.907 103.681 176.141 107.533 183.636 107.508C185.496 107.495 187.137 107.307 188.628 107.054C189.063 106.983 189.49 106.905 189.895 106.821L190.766 103.099C189.314 103.584 187.479 103.985 186.008 103.992C182.017 104.005 179.341 101.638 179.335 98.5347C179.328 96.8807 180.008 95.428 181.237 94.3653C182.554 93.2267 184.495 92.538 186.922 92.538C188.844 92.538 189.968 93.0693 190.735 93.828C190.889 93.9767 191.031 94.1327 191.155 94.296H191.78L193.003 89.9027C191.743 89.4867 189.874 89.1367 187.903 89.1147C183.313 89.0533 179.583 90.3333 176.991 92.292Z" fill="white"/>
<path d="M170.741 92.9027C171.279 92.9027 171.727 93.0987 172.027 93.3553C172.283 93.5733 172.437 93.8327 172.437 94.0567H173.053L174.245 89.286H158.049L157.812 90.2193L157.756 90.446C157.756 90.446 159.529 90.6453 158.986 92.4173L154.943 107.107L161.819 107.12H163.025L163.331 105.859C163.331 105.859 161.819 105.494 162.215 104.097C162.233 104.01 162.803 101.921 163.143 100.667C163.295 100.126 163.403 99.7367 163.403 99.7367L167.104 99.734C167.709 99.734 168.173 99.8453 168.532 99.984C169.273 100.268 169.558 100.699 169.558 100.699L170.632 96.3333H164.392L165.066 93.84L165.319 92.91L170.741 92.9027Z" fill="white"/>
<path d="M151.061 104.485C150.581 103.971 146.42 97.4893 146.42 97.4893L153.779 91.5993L154.023 91.4033C154.353 91.128 154.663 90.9333 154.934 90.792C155.716 90.39 156.22 90.4473 156.22 90.4473L156.515 89.2733L147.056 89.2873L146.821 90.2173L146.765 90.4473C147.407 90.492 148.305 91.0667 147.571 91.7513C147.475 91.8333 139.969 97.5693 139.969 97.5693L140.027 97.3667L141.588 91.7127C141.918 90.5833 143.131 90.4473 143.131 90.4473L143.428 89.284L134.397 89.2867L134.165 90.2167L134.106 90.4467C134.538 90.558 135.771 90.7973 135.344 92.418C132.33 103.31 132.675 102.232 132.471 102.825C131.796 105.407 130.784 105.763 130.175 105.829C130.043 105.841 129.928 105.841 129.845 105.846L129.721 106.334L129.529 107.106H137.772H138.975L139.29 105.827C139.29 105.827 137.791 105.531 138.077 104.449C138.222 103.906 138.601 102.527 138.935 101.311C139.259 100.13 139.546 99.0953 139.546 99.0953C141.184 101.721 141.561 102.046 143.538 104.759C145.357 107.268 147.302 107.151 151.997 107.119C152.379 107.116 152.775 107.113 153.202 107.113L153.514 105.858C152.324 105.865 151.536 104.997 151.061 104.485Z" fill="white"/>
<path d="M195.599 89.594C195.365 89.364 195.087 89.2493 194.753 89.2493C194.425 89.2493 194.147 89.364 193.912 89.594C193.683 89.824 193.565 90.1067 193.565 90.436C193.565 90.768 193.683 91.0493 193.912 91.284C194.141 91.5147 194.425 91.6347 194.753 91.6347C195.087 91.6347 195.365 91.514 195.599 91.284C195.832 91.0493 195.949 90.768 195.949 90.436C195.952 90.1067 195.831 89.824 195.599 89.594ZM195.483 91.1667C195.285 91.3687 195.038 91.4713 194.753 91.4713C194.469 91.4713 194.228 91.3693 194.031 91.1667C193.833 90.9673 193.731 90.7233 193.731 90.436C193.731 90.1547 193.833 89.9107 194.031 89.7113C194.231 89.5093 194.469 89.4073 194.753 89.4073C195.038 89.4073 195.279 89.5093 195.483 89.7113C195.681 89.9107 195.779 90.1547 195.779 90.436C195.779 90.7227 195.681 90.9673 195.483 91.1667Z" fill="white"/>
<path d="M195.294 90.154C195.294 89.99 195.223 89.8793 195.093 89.822C195.006 89.794 194.895 89.7787 194.735 89.7787H194.277V91.0873H194.503V90.57H194.684C194.81 90.57 194.893 90.5853 194.947 90.6133C195.025 90.664 195.068 90.7633 195.065 90.9147V91.0153L195.075 91.06C195.075 91.066 195.075 91.0693 195.075 91.0753C195.075 91.0753 195.075 91.0813 195.081 91.088H195.294L195.291 91.0693C195.278 91.06 195.278 91.0387 195.273 91.0027V90.908V90.8093C195.273 90.7427 195.248 90.67 195.199 90.6033C195.156 90.5367 195.075 90.492 194.977 90.4767C195.057 90.464 195.119 90.446 195.165 90.4133C195.247 90.3567 195.294 90.272 195.294 90.154ZM194.93 90.3833C194.884 90.402 194.812 90.408 194.717 90.408H194.505V89.9367H194.699C194.829 89.934 194.925 89.952 194.983 89.9847C195.039 90.0153 195.07 90.082 195.07 90.178C195.069 90.2753 195.022 90.3447 194.93 90.3833Z" fill="white"/>
<path d="M182.333 126.334C169.889 122.556 144.333 123.445 144.333 123.445L165.222 172.667C165.222 172.667 167.157 171.697 167.398 172.227C178.731 161.632 187.53 148.384 192.807 133.463C192.391 133.143 194.778 130.112 182.333 126.334Z" fill="white"/>
<path d="M139.895 184.415C138.962 179.509 135.251 163.282 135.251 163.282C135.251 163.282 140.178 161.987 141.333 159.167C142.489 156.347 139.874 152.003 139.75 150.291C139.216 145.181 137.208 124.249 133.917 119.916C132 117.393 123.186 112.414 122.5 112.444C119.333 112.583 113 126.375 107.708 127.625C104.181 128.458 101.689 125.027 102.26 125.286C102.25 125.279 102.238 125.273 102.232 125.267C102.232 125.267 102.238 124.872 101.648 123.018C101.058 121.157 99.822 119.205 99.5933 118.764C99.3713 118.321 98.7007 117.358 98.6773 117.247C98.6587 117.139 98.4147 116.518 98.242 115.387C97.9133 113.206 98.064 111.745 98.0767 111.612C98.0833 111.479 98.144 111.083 98.162 111.003C98.176 110.919 98.1433 110.777 98.0427 110.753C97.9373 110.735 97.656 110.666 97.362 110.969C96.7487 111.587 96.7207 111.705 96.7093 111.809C96.688 111.907 96.7513 112.094 96.7327 112.31C96.666 112.996 96.546 113.521 96.2387 114.021C95.9327 114.528 95.7333 114.702 95.3 114.661C94.8593 114.621 94.4927 114.271 94.4393 113.367C94.382 112.463 94.204 112.153 94.0227 111.939C93.842 111.717 93.43 111.615 93.2893 111.623C93.1507 111.623 93.0347 111.747 92.0813 111.981C91.136 112.222 89.6333 112.303 89.412 112.312C89.186 112.325 88.3613 112.409 88.3553 112.411C88.528 113.056 84.89 112.064 84.278 112.555C83.028 113.555 82.444 120.048 81.8333 123.415C81.8327 123.418 81.8327 123.421 81.832 123.425L61.3333 125.5L54.1667 142.167C54.1667 142.167 56.3333 175.167 56.3333 175.667C56.3333 176.167 101.667 165.833 101.667 165.833L118.77 165.463C118.77 165.463 118.774 165.476 118.777 165.509C118.898 166.495 120.794 182.245 121.18 184.711L122.462 193.704C122.567 194.468 122.685 195.241 122.814 196.003C124.798 195.545 126.763 195.036 128.7 194.455C128.543 193.441 128.381 192.419 128.203 191.362C127.949 190.08 127.773 188.847 127.566 187.602L127.023 184.512C126.529 181.595 123.662 164.77 123.662 164.77L126.667 162.873L130.144 163.935C130.237 164.362 130.329 164.825 130.435 165.326C131.148 168.817 132.121 174.051 133.639 181.107L134.792 187.96C134.823 188.251 135.195 190.222 135.537 192.137C137.365 191.435 139.167 190.679 140.943 189.875L139.895 184.415Z" fill="white"/>
<path d="M105.917 59.3887C102.139 59.944 96.6387 63.0273 96.8887 65.2773C97.0427 66.672 104.922 66.8853 108.472 67.1387C112.022 67.392 112.608 63.9793 112.417 62.1247C112.227 60.27 109.893 58.8047 105.917 59.3887Z" fill="#F5D4B7"/>
<path d="M131.698 119.959C129.823 119.763 130.694 122.803 130.672 123.111V123.117C131.621 126.695 132.408 130.265 133.017 133.495C133.025 133.814 133.049 134.093 133.088 134.32C133.357 135.728 133.913 140.279 134.982 150.558C135.229 153.981 135.445 157.553 135.588 160.556C135.685 160.549 142 160.915 142 160.915C142 160.915 141.75 152.082 139.791 140.999C137.833 129.916 134.896 120.292 131.698 119.959Z" fill="#F5D4B7"/>
<path d="M114.671 92.1253C114.955 90.562 114.63 89.7893 114.118 88.8753C113.615 87.964 112.641 87.1113 111.383 86.2847C110.167 85.4753 107.417 83.0487 107.15 82.8193C106.89 82.5953 105.606 81.3813 105.309 81.14C104.999 80.902 104.4 80.4033 103.084 79.736C99.8953 78.128 97.3313 79.3313 97.232 79.3867C97.1346 79.4413 96.6613 79.824 96.208 80.2547C95.7613 80.678 96.0966 81.4967 96.268 81.7953C96.268 81.7953 113.191 94.2 113.225 94.4893L113.237 94.4987C113.237 94.4987 114.436 93.4027 114.671 92.1253Z" fill="#F5D4B7"/>
<path d="M107.67 76.8473C107.114 77.0187 106.795 77.196 106.638 77.3727C106.607 77.408 106.595 77.4467 106.583 77.484C106.569 77.5133 106.569 77.544 106.569 77.5733C106.569 77.598 106.569 77.6193 106.569 77.6413C106.575 77.6707 106.587 77.6953 106.594 77.722C106.609 77.7527 106.625 77.7853 106.643 77.816C106.656 77.836 106.668 77.858 106.685 77.8793C106.71 77.918 106.745 77.9547 106.779 77.9933C106.793 78.012 106.81 78.0273 106.828 78.0447C106.871 78.0873 106.918 78.1327 106.971 78.1773C106.983 78.19 106.995 78.202 107.011 78.2113C107.07 78.2627 107.132 78.31 107.193 78.3613C107.205 78.3673 107.211 78.374 107.224 78.3833C107.298 78.4373 107.373 78.4867 107.447 78.5373C107.449 78.5407 107.453 78.5407 107.456 78.5433C107.539 78.5973 107.619 78.6487 107.697 78.6993C107.78 78.7487 107.897 78.7747 108.04 78.778C108.175 78.784 108.343 78.7653 108.523 78.7333C109.116 78.616 109.875 78.3167 110.518 78.0087C110.518 78.012 110.511 78.0087 110.505 78.012C110.468 78.0247 109.291 76.0827 109.337 76.0253C108.931 76.336 108.411 76.614 107.67 76.8473Z" fill="#F5D4B7"/>
<path d="M84.9473 88.452C84.994 88.4707 85.0353 88.498 85.0833 88.5167C85.0773 88.5107 85.0733 88.5073 85.07 88.5013C84.8293 88.2513 84.8107 88.1953 84.7267 87.8553C84.6353 87.5013 84.404 87.0673 84.3067 86.822C84.202 86.5747 83.7367 85.736 83.5573 85.1927C83.3787 84.6487 83.298 84.3167 83.262 83.7713C83.1233 83.36 83.018 82.5413 83.0813 81.8013C83.1353 81.1467 83.2807 80.3927 83.696 78.2733C83.9773 76.8813 83.5367 75.278 83.5213 73.7933C83.508 72.6487 83.3947 69.8353 83.426 67.004V66.9947C83.23 67.0613 58.028 61.6547 58.2053 61.628C58.2087 61.628 58.2153 61.6247 58.2207 61.6247C58.42 59.538 58.2993 56.7307 58.1867 54.602C58.8387 48.208 59.822 40.8067 62.0813 35.8727C63.8273 32.0787 63.594 33.3287 64.4567 31.5407C64.5047 31.4447 64.568 31.332 64.578 31.1993C64.5873 31.11 64.514 30.608 64.4993 30.4487C64.4993 30.446 64.4993 30.446 64.4993 30.4427C64.448 30.458 58.306 28.738 50.664 46.2773C47.4653 53.6253 51.722 72 51.722 72L58.3747 74.2087L62.708 71.8547L72.958 69.7507L77.1453 71.7927C77.1453 71.7927 75.856 75.7133 75.8453 75.7133C75.8453 75.716 75.842 75.716 75.842 75.716C75.842 75.716 75.8453 75.9 75.824 76.1873C75.752 77.596 74.9733 79.0127 74.324 79.7913C73.4487 80.8513 71.9147 81.5913 71.0413 82C70.1613 82.402 68.7447 82.7013 68.6613 82.7153C68.586 82.7333 68.1147 82.7973 68.038 82.8093C67.962 82.8153 67.8167 82.8633 67.6147 82.9033C67.4047 82.9393 67.1747 82.9453 67.06 82.9933C67.0027 83.0147 66.9593 83.0427 66.924 83.0753C66.8607 83.1267 66.8267 83.1867 66.81 83.2533C66.8067 83.2593 66.804 83.272 66.804 83.2813C66.7907 83.3447 66.7907 83.408 66.8007 83.4653C66.8427 83.674 67.0687 83.9647 67.0953 84.0153C67.19 84.196 67.7333 84.712 68.6233 84.5127C69.794 84.25 70.5507 84.0153 71.332 83.7633C72.12 83.5067 73.1647 83.0547 73.324 82.9153C73.486 82.7807 73.9193 82.45 73.9887 82.412C73.9887 82.4087 73.9913 82.4087 73.9913 82.4087C74.0813 82.3267 74.1667 82.2493 74.2513 82.1767C74.2873 82.146 74.3233 82.1073 74.36 82.0793C74.3687 82.072 74.3747 82.066 74.384 82.0587C74.522 83.71 72.5413 88.668 72.5413 88.668C72.5413 88.668 67.9267 90.31 68.2193 90.0927C68.2193 90.0927 68.214 90.0927 68.214 90.0953C67.8387 90.2793 67.2867 90.4787 66.728 90.0413C66.728 90.0413 66.1847 89.4067 65.5193 88.5647C65.1207 88.0613 64.6807 87.4867 64.2827 86.926C64.0013 86.5307 63.8007 86.208 63.6527 85.942C63.3653 85.4527 63.2507 85.1387 63.2 84.9427C63.194 84.9273 63.1873 84.91 63.1873 84.898C63.0633 84.572 62.96 84.044 62.96 84.044C62.1273 83.9407 61.2513 83.7507 60.4427 83.4553C60.4487 83.458 60.4487 83.466 60.4553 83.472C60.5227 83.532 54.74 84.7933 54.74 84.7933L60.7233 109.169C60.7233 109.169 71.89 126.724 78.89 123.335C79.9333 122.83 81.75 119.272 81.0013 118.057C80.232 116.813 68.39 97.1687 68.39 97.1687C68.39 97.1687 84.788 88.3813 84.9473 88.452Z" fill="#F5D4B7"/>
<path d="M107.645 154.706C109.833 156.158 110.593 156.498 112.985 157.498C113.745 157.857 115.753 157.449 116.611 156.163C116.596 156.17 116.581 156.188 116.569 156.198C116.562 156.201 116.562 156.201 116.556 156.201C116.5 156.235 104.649 146.935 103.104 146.385C102.554 146.191 99.5273 147.301 99.9166 147.861C100.265 148.364 101.729 149.889 101.763 149.947C103.829 151.554 106.428 153.698 107.645 154.706Z" fill="#F5D4B7"/>
<path d="M82.4447 137.555L62.6253 126.208C62.6253 126.208 63.2033 131.83 63.2 131.918C63.2033 131.921 63.2033 131.921 63.206 131.925C64.652 133.219 66.9167 134.768 67.2747 135.011C67.4067 135.099 68.328 135.707 68.5247 135.927C68.768 136.191 71.2133 137.931 71.4 138.061C71.5787 138.182 74.2193 139.639 75.8193 140.491C75.8767 140.46 74.706 141.419 74.724 141.388C74.1613 141.425 73.7533 141.684 73.1327 141.882C70.3547 143.443 72.0033 146.689 72.2653 148.951C72.7967 150.857 73.468 154.167 75.9393 154.475C77.8207 154.701 82.1273 153.524 84.404 153.057C84.7267 152.487 88.0273 152.282 87.9867 152.328C88.5693 152.154 89.3507 151.879 89.5873 151.923C89.7293 151.948 89.0713 152.647 88.69 153.36C88.3067 154.08 85.9373 161.075 83.7313 164.801C82.9913 166.327 83.342 165.697 82.8913 166.806V166.809L87.3613 167.833L94.5833 149.499L82.4447 137.555Z" fill="#F5D4B7"/>
<path d="M59.962 151.807C60.7313 153.235 62.948 156.229 63.0567 156.399C63.1647 156.565 63.642 157.079 64.2047 157.709C64.7687 158.335 65.252 158.883 65.388 159.043C65.524 159.198 66.5807 160.295 66.8533 160.546C67.1253 160.796 67.4407 161.306 67.6693 161.519C68.4513 162.221 71.3307 164.723 71.6087 164.93C71.8867 165.142 73.26 166.063 73.5073 166.097C75.9807 166.41 77.1946 165.055 77.4453 164.654C77.6986 164.262 77.7466 164.093 77.5906 163.505C77.5873 163.547 68.0427 156.375 61.7093 142.583C61.464 142.049 59.2673 139.389 57.2507 141C55.5947 142.323 56.792 145.492 56.792 145.492V145.51C57.4207 146.809 59.304 150.59 59.962 151.807Z" fill="#F5D4B7"/>
<path d="M41.222 153.167C41.8607 150.777 36.564 151.31 36.182 151.223C34.5307 153.896 32.778 162.973 31.8853 167.225C31.7307 167.703 31.5227 168.473 31.278 169.467C32.494 170.703 33.7367 171.911 35.014 173.079C35.936 169.492 41.0527 153.802 41.222 153.167Z" fill="#F5D4B7"/>
<path d="M195.075 91.0593C195.075 91.0653 195.078 91.072 195.078 91.0747C195.078 91.0747 195.078 91.0807 195.081 91.0873C195.078 91.0813 195.078 91.0747 195.078 91.0747C195.077 91.072 195.075 91.066 195.075 91.0593Z" fill="#A3080C"/>
<path d="M183.038 125.274C180.084 124.62 173.089 123.216 163.661 122.35C154.237 121.492 146.523 120.756 145.463 120.641C144.492 120.545 144.141 119.655 143.259 119.213C140.065 117.611 134.027 116.124 130.244 114.792C129.308 114.468 128.693 113.639 127.401 112.064C126.615 111.103 126.084 110.67 125.412 110.061C125.009 109.693 124.133 108.952 123.898 108.773C123.669 108.587 123.509 108.056 123.707 107.024C123.905 105.988 124.523 101.948 124.473 97.244C124.459 95.9813 125.015 95.1727 125.607 94.8773C125.925 94.7167 127.995 93.796 127.855 91.7613C127.709 89.702 127.073 86.8293 128.73 82.786C130.333 78.8687 132.335 71.8767 132.577 67.264C132.834 62.364 131.603 59.2033 129.67 57.492C128.916 56.8307 128.026 55.8313 128.753 53.698C129.528 51.4027 130.936 45.134 129.553 40.9873C129.243 40.0667 128.891 40.0607 128.68 39.9493C128.468 39.8413 127.463 39.072 127.086 37.38C126.579 35.1493 124.948 27.2213 118.799 19.162C115.542 14.8833 112.063 12.3387 110.674 11.3133C109.722 10.694 108.051 9.52933 106.051 8.466C103.191 6.95333 100.92 5.79933 96.3527 4.32133C95.9207 4.18533 94.9427 3.886 93.6507 3.54133C93.6473 3.54133 93.636 3.54133 93.636 3.54133C93.636 3.54133 89.7447 2.5 85.5367 2.00867C84.818 1.942 83.8347 1.85133 82.7187 1.77533C78.3867 1.522 76.8053 1.788 74.5527 2.01467C74.312 2.038 74.0667 2.07467 73.8247 2.10733C73.3753 2.16733 72.9107 2.23667 72.4247 2.31267C65.7313 3.45867 58.922 6.598 55.61 8.17733C53.74 9.06533 52.086 9.98933 50.5647 10.856C50.5227 10.8827 50.4687 10.9133 50.4407 10.93C50.0487 11.1693 49.4347 11.5113 48.836 11.84C47.9 12.368 47.0053 12.8627 46.1387 13.286C43.458 14.59 41.1 15.2573 39.376 15.8553C39.0627 15.9727 38.8007 16.072 38.5973 16.1413C37.3547 16.6253 36.5627 17.1253 36.4173 17.95C36.152 19.43 37.894 20.8033 37.272 23.164C35.7407 28.9693 29.188 34.5413 28.1373 35.184C25.094 37.0413 25.284 38.334 25.1667 38.9953C25.1667 39.61 25.2927 40.2927 25.6427 41.03C26.6567 43.1787 28.5327 45.02 29.4507 46.962C30.3713 48.9053 30.896 52.3113 30.2073 56.2927C29.55 60.1427 29.344 60.9967 29.002 61.7027C28.662 62.4113 27.976 63.788 28.922 65.4253C29.872 67.0673 31.874 68.742 33.13 69.706C33.798 70.222 34.144 70.69 33.6487 71.62C32.8327 73.142 33.0413 76.7307 33.814 78.7387C34.9807 81.802 36.3507 84.722 37.622 86.5987C38.8947 88.474 41.1653 91.666 42.5007 92.8207C43.8307 93.9827 44.0133 95.9967 43.9873 97.2467C43.9593 98.49 43.7847 102.015 47.4073 104.221C49.1927 105.319 49.3527 105.043 50.0073 105.581C50.662 106.109 50.97 106.384 51.4227 107.811C51.8753 109.233 53.9347 114.219 56.77 117.729C57.5973 118.749 58.0567 119.471 58.1553 119.639C58.2553 119.805 58.4093 119.991 58.0507 120.831C57.694 121.671 56.2627 126.457 55.1207 131.403C54.912 132.311 54.6053 133.503 53.4673 134.063C52.3273 134.613 49.7813 136.019 48.8547 136.531C47.922 137.044 47.462 137.323 46.3893 138.657C45.912 139.25 45.5647 139.598 45.2633 139.96C45.09 140.169 45.0133 140.303 44.1067 140.776C43.3213 141.184 31.6667 145.285 19.308 152.845C19.002 153.029 18.716 153.193 18.432 153.351C19.16 154.488 19.9027 155.614 20.6753 156.713C23.45 155.311 30.0693 151.955 31.11 151.437C31.9313 151.023 32.9533 150.862 33.7793 150.842C34.2767 150.833 34.7033 150.873 34.9747 150.941C35.5293 151.077 36.484 151.287 37.3707 151.49C37.4527 151.508 37.5347 151.528 37.6193 151.546C37.674 151.559 37.728 151.571 37.7847 151.587C38.1507 151.677 38.4893 151.757 38.7627 151.831C38.778 151.837 38.7907 151.837 38.806 151.843C38.9387 151.881 39.0593 151.914 39.152 151.942C39.9393 152.201 40.358 153.678 39.932 155.022C39.8567 155.275 39.6113 156.128 39.252 157.389C39.0733 158.022 38.8687 158.751 38.6447 159.561C38.4193 160.371 38.1733 161.261 37.914 162.207C37.0027 165.518 35.9327 169.492 35.012 173.079C37.4787 175.328 40.0667 177.445 42.756 179.433C43.0573 177.105 43.374 174.679 43.6193 172.915C44.262 168.313 47.9387 151.263 48.9767 147.386C49.732 144.565 50.1247 143.28 51.1173 142.835C51.4153 142.706 51.754 142.508 51.95 142.412C52.146 142.321 52.5753 142.217 52.4427 142.965C52.2907 143.851 51.5253 147.469 50.3993 159.209C49.6173 167.354 49.5987 174.567 49.88 178.906C50.0013 180.753 50.0327 183.365 52.8593 182.233C56.162 180.913 67.4207 176.876 73.4353 175.023C83.12 172.035 101.272 168.045 118.767 165.463L123.659 164.768C123.659 164.768 126.523 181.596 127.017 184.513L127.56 187.6L127.022 184.513C126.525 181.596 123.664 164.768 123.664 164.768C124.349 164.674 125.039 164.586 125.719 164.499C127.285 164.301 128.756 164.117 130.14 163.937L135.25 163.282C137.641 162.976 139.693 162.713 141.431 162.486C141.431 162.486 144.734 177.754 145.976 183.239C146.063 183.599 146.137 183.925 146.199 184.197L146.81 186.999C146.813 186.999 146.817 186.999 146.819 186.999L146.211 184.197C145.203 179.859 141.441 162.487 141.441 162.487L146.673 161.813C148.22 161.615 150.191 161.368 150.779 161.34C152.008 161.289 152.545 160.593 151.606 160.311C150.929 160.113 149.363 159.957 148.571 159.937C148.269 159.934 147.719 159.927 147.391 159.922C146.18 159.901 145.834 159.662 145.568 157.877C144.814 152.643 141.898 139.668 139.804 132.827C137.777 126.228 137.277 124.328 136.789 122.875C136.362 121.623 137.189 121.547 137.586 121.565C139.063 121.635 141.108 122.402 141.695 123.665C142.993 126.48 151.872 149.737 155.437 158.408C157.687 163.87 160.307 170.445 162.781 176.303C164.367 174.999 165.896 173.627 167.394 172.225C162.788 162.097 152.533 139.155 147.127 127.544C146.932 127.126 146.669 126.449 146.537 126.052C146.491 125.919 146.471 125.801 146.471 125.697C146.478 124.956 147.457 124.853 147.942 124.9C149.851 125.091 167.19 126.235 171.924 126.687C175.048 126.982 178.165 127.459 180.247 127.83C180.729 127.919 181.154 128 181.513 128.071C181.957 128.159 182.291 128.23 182.507 128.289C184.052 128.692 186.777 129.77 189.299 131.123C190.343 131.679 191.53 132.489 192.803 133.465C193.186 132.377 193.568 131.286 193.915 130.184C193.007 129.554 191.987 128.911 190.985 128.373C188.105 126.837 185.673 125.861 183.038 125.274ZM41.8507 67.7733C41.3793 67.976 40.9533 68.03 40.6273 67.3873C39.8367 65.824 39.236 63.04 39.0067 61.2313C38.7707 59.424 38.4093 54.0293 38.5233 51.082C38.6493 48.1327 38.0733 46.4847 37.0193 45.074C35.9627 43.6653 35.2833 42.6873 35.024 42.2127C34.698 41.6207 34.916 41.216 35.5393 40.764C35.842 40.552 36.46 40.6793 36.938 40.58C37.8833 40.39 41.04 39.2453 43.392 37.4007C45.7387 35.556 49.4787 31.988 52.0167 30.6147C54.5467 29.2413 55.67 28.6153 58.6313 28.26C59.1567 28.1987 59.9447 28.4793 59.0553 29.156C58.1667 29.8327 55.3167 30.8427 51.9933 35.8573C49.9527 38.9253 49.62 40.6973 48.974 42.074C48.3247 43.45 47.704 43.8393 46.6767 44.9533C46.1767 45.4847 45.158 46.6013 44.7907 48.2207C44.434 49.8413 42.9587 55.5507 43.8253 64.186C43.9273 65.1913 44.3413 66.5293 43.3987 67.016C42.8167 67.318 42.3173 67.574 41.8507 67.7733ZM45.92 79.4087C45.418 79.052 43.366 76.274 42.3667 73.1867C42.2567 72.8607 42.1367 72.0313 42.6773 71.7947C43.1207 71.6047 43.7093 71.2633 44.0153 71.118C44.3253 70.962 45.098 70.7593 45.2047 71.8733C45.3127 72.99 45.41 74.306 46.6827 77.6C46.9133 78.1887 46.9607 78.3727 47.0207 78.6087C47.1853 79.2927 46.3847 79.7393 45.92 79.4087ZM50.1 68.918C49.964 68.9413 48.556 69.1113 47.7967 69.2533C47.3253 69.34 46.84 69.516 46.786 69.062C46.7227 68.546 46.5713 67.8647 46.5267 67.6807C46.486 67.4893 46.578 67.308 46.806 67.254C47.3653 67.1247 49.5267 66.7613 49.7353 66.7507C49.944 66.748 50.1553 66.8187 50.246 67.2513C50.328 67.6853 50.432 68.1473 50.4567 68.3353C50.482 68.5287 50.536 68.8513 50.1 68.918ZM50.868 61.866C50.738 61.208 50.556 60.0813 50.6147 59.38C50.6347 59.1007 50.7193 58.402 51.0547 58.0253C51.5287 57.488 52.1587 56.9993 52.5673 56.6687C53.3107 56.06 53.156 54.4847 53.21 53.5807C53.374 50.9547 53.1407 42.662 58.522 34.728C58.7293 34.4267 58.9407 34.1487 59.1487 33.886C59.212 33.8073 59.2753 33.7347 59.3387 33.6573C59.4933 33.4753 59.6473 33.3 59.8067 33.138C59.8733 33.0653 59.9393 32.996 60.0093 32.9293C60.1993 32.742 60.3927 32.5633 60.5853 32.4013C60.6133 32.3793 60.638 32.3547 60.664 32.332C60.882 32.156 61.1007 31.9967 61.318 31.8453C61.3967 31.794 61.4753 31.7433 61.554 31.6973C61.704 31.5987 61.8553 31.51 62.0067 31.424C62.0927 31.3773 62.178 31.3293 62.266 31.2847C62.4313 31.2 62.6013 31.1207 62.7693 31.0453C62.8333 31.0187 62.896 30.988 62.9593 30.9587C63.1773 30.8673 63.4013 30.786 63.6233 30.71C63.7187 30.6773 63.8107 30.65 63.9047 30.6207C64.054 30.574 64.2027 30.5293 64.3513 30.488C64.402 30.4753 64.4487 30.4573 64.5 30.4447C64.5 30.4473 64.5 30.4473 64.5 30.4507C65.5953 30.1587 66.7187 29.9947 67.8533 29.802C71.0567 29.258 74.7907 29.7667 76.7113 30.378C78.238 30.8613 79.0113 31.232 79.522 30.75C80.0347 30.27 81.372 28.754 81.9393 28.2167C82.0173 28.1407 82.0787 28.0573 82.1207 27.9753C82.138 27.9473 82.1473 27.9187 82.16 27.8907C82.1807 27.8367 82.1987 27.7793 82.2073 27.7227C82.2107 27.692 82.2173 27.6593 82.2173 27.6253C82.2173 27.5713 82.2107 27.5173 82.202 27.46C82.196 27.432 82.196 27.4 82.182 27.372C82.1613 27.2933 82.1267 27.2173 82.0793 27.1447C81.9547 26.9373 81.7567 26.7527 81.5113 26.6053C80.8887 26.2393 74.6367 21.6513 66.2087 21.446C57.9733 21.24 51.2893 24.154 49.5167 24.764C49.158 24.8847 48.974 24.948 48.7633 24.9507C48.5547 24.9567 47.836 24.7113 48.102 24.192C48.394 23.6373 49.1247 22.7833 49.884 22.0913C50.6807 21.3733 54.5773 17.7053 58.426 16.0067C59.138 15.6947 59.3113 15.5647 59.7673 15.3873C60.35 15.1667 60.6947 13.8533 59.4073 13.85C58.088 13.8407 57.5627 13.9887 56.866 14.0973C56.168 14.2133 55.7847 13.9013 56.2253 13.3033C56.6607 12.7073 57.5213 12.046 59.0747 11.2027C62.4473 9.36467 68.6167 7.42733 71.5333 6.78933C75.3367 5.95667 75.8013 5.90267 78.3253 5.748C80.686 5.612 82.574 5.77867 83.4673 5.81467C91.0293 6.102 99.738 8.60467 106.48 13.044C112.891 17.7607 122.117 25.6187 123.945 45.0167C124.165 47.3447 124.011 48.664 123.921 49.2467C123.841 49.8293 123.179 50.9007 122.599 49.684C120.686 45.6753 117.729 40.4293 114.393 35.4567C114.195 35.1613 113.993 35.0193 113.83 34.998C113.761 34.984 113.703 34.9953 113.645 35.02C113.63 35.0293 113.62 35.0447 113.605 35.0553C113.573 35.08 113.539 35.1107 113.514 35.1527C113.501 35.182 113.486 35.2127 113.477 35.244C113.461 35.286 113.452 35.3333 113.446 35.38C113.439 35.422 113.433 35.4607 113.433 35.504C113.433 35.6027 113.439 35.7113 113.467 35.83C113.551 36.182 114.613 41.442 114.653 42.1747C114.699 42.9053 114.341 44.6987 117.065 48.008C118.178 49.366 119.166 50.526 119.673 52.5293C120.173 54.5253 120.343 55.3793 120.347 55.5913C120.354 55.8 120.594 56.3947 119.63 56.4007C118.672 56.4033 115.014 56.138 113.449 56.1733C111.882 56.2107 101.069 57.2713 97.0467 58.126C93.0233 58.982 90.8587 59.9953 88.7927 62.166C88.2953 62.688 87.6 63.1747 87.442 63.2193C87.2927 63.2613 86.768 63.25 85.7427 63.1807C84.7213 63.114 82.95 63.3647 82.02 63.7847C81.084 64.2033 80.4167 64.5927 79.2893 64.1333C77.678 63.4813 74.914 60.5047 67.7373 60.8553C63.4173 61.0667 61.204 61.1847 58.206 61.628C58.0313 61.656 57.8507 61.682 57.6713 61.71C57.5573 61.7287 57.4393 61.7467 57.3227 61.7667C57.2593 61.776 57.1933 61.7853 57.1267 61.7973C55.906 61.9967 54.5273 62.2533 52.8253 62.5853C52.5893 62.63 52.3573 62.678 52.1133 62.724C51.45 62.8567 50.9913 62.5593 50.868 61.866ZM116.951 60.0153C116.951 60.244 116.673 60.4807 116.389 60.5287C116.107 60.5733 114.177 60.75 113.868 60.7727C113.565 60.794 113.269 60.6273 113.243 60.342C113.219 60.0607 113.156 59.3933 113.139 59.2187C113.107 59.0547 113.101 58.826 113.494 58.7753C113.723 58.7473 115.736 58.5667 116.479 58.4787C116.757 58.446 116.939 58.6967 116.945 58.94C116.945 59.184 116.945 59.7887 116.951 60.0153ZM107.921 62.1827C107.323 61.7627 106.273 61.1013 105.637 60.8693C105.199 60.712 105.352 60.1633 105.977 60.0753C108.153 59.7587 109.548 59.7587 110.63 60.434C111.421 60.924 111.947 61.8753 111.705 62.714C111.42 63.6767 111.043 63.468 110.571 63.46C110.098 63.4513 108.511 62.6047 107.921 62.1827ZM109.178 66.4267C108.795 66.6847 107.544 66.4547 107.089 66.2767C106.157 65.9107 105.495 65.6573 104.197 64.834C103.35 64.2967 101.877 64.0307 100.589 64.42C99.7393 64.6767 99.0567 64.8913 98.3087 65.18C97.5593 65.4673 97.406 64.7847 97.602 64.4927C97.7953 64.2013 98.9813 62.8127 100.555 62.222C100.885 62.0953 101.559 62.026 101.889 62.0193C102.903 61.99 104.16 62.4847 105.112 63.1793C106.072 63.8793 107.596 65.0207 108.597 65.4487C109.067 65.6507 110.086 65.7993 109.178 66.4267ZM77.902 100.195C74.1073 101.524 73.0433 100.189 72.7053 99.7933C72.3687 99.398 72.784 99.012 73.186 98.8247C74.0887 98.4047 75.2967 97.49 75.9067 96.8947C76.52 96.3 77.7113 94.23 78.5713 93.5027C78.9793 93.1553 81.1833 92.406 82.8413 93.1967C84.8127 94.136 87.882 94.2333 89.7667 93.988C91.65 93.7347 92.368 92.358 92.7767 91.5453C93.184 90.7253 94.1833 90.4253 94.7087 90.2093C96.1547 89.618 98.0687 87.634 98.2647 87.432C98.4607 87.2233 99.0573 86.93 100.006 87.486C101.733 88.5007 102.611 89.8433 104.214 91.6647C105.817 93.4873 107.715 93.772 108.271 93.8073C108.827 93.8427 109.173 94.4873 109.199 94.6647C109.229 94.842 108.766 95.4587 108.42 95.718C108.073 95.9773 107.881 96.4367 104.811 96.5093C89.406 96.8893 82.474 98.5953 77.902 100.195ZM98.7967 102.049C97.8827 102.522 95.164 103.547 93.8107 103.807C92.4527 104.068 88.144 104.941 87.4167 105C86.5113 105.07 85.2427 104.799 84.1413 104.045C83.92 103.893 83.6193 103.301 84.4227 103.182C85.9133 102.961 88.32 101.842 97.0747 101.396C98.0153 101.347 98.4573 101.328 98.6827 101.323C98.908 101.318 99.7173 101.577 98.7967 102.049ZM78.514 121.486C75.4567 121.99 67.3173 119.602 62.0253 106.542C60.6613 103.183 62.1573 99.84 63.47 99.164C64.2487 98.7687 64.67 98.608 64.9353 98.5413C65.2233 98.4687 66.6087 98.288 66.766 99.8467C66.8907 101.107 69.338 111.458 72.6287 114.881C73.44 115.729 74.0813 115.677 74.2907 114.801C74.4707 113.997 74.8253 112.941 74.9287 112.538C75.0013 112.247 75.7953 111.37 76.2453 112.489C77.2133 114.863 78.3813 117.971 79.1487 119.215C79.8993 120.43 79.658 121.297 78.514 121.486ZM79.1173 87.338C79.4047 87.7367 79.5827 88.4613 79.5607 88.7813C79.5313 89.1507 78.2687 89.8207 76.956 88.3473C75.6427 86.8707 75.8993 84.83 76.4427 83.9633C77.3093 82.5807 79.012 83.2693 78.8473 83.7627C78.2787 85.4707 78.8253 86.9367 79.1173 87.338ZM69.3607 68.2133C68.3787 68.1813 67.322 68.0607 65.5293 68.7247C63.5227 69.466 62.2327 70.4333 61.2993 71.006C60.34 71.604 59.3247 71.8607 58.9847 71.8853C58.6467 71.9147 57.4147 71.7527 58.2633 70.8607C58.4887 70.6167 59.0293 70.4327 59.85 69.8347C60.4367 69.4027 60.8713 69.0947 61.5387 68.5327C62.728 67.5193 65.152 66.0547 66.2087 65.9247C66.984 65.832 68.3547 65.9787 69.17 66.646C70.0187 67.3427 70.3447 68.2447 69.3607 68.2133ZM52.476 69.9533C52.5793 69.3107 53.282 67.616 54.7627 67.1247C54.962 67.0647 55.7 66.8247 56.3167 66.666C57.044 66.4827 57.826 66.3213 58.2247 66.2493C59.296 66.0627 59.522 66.878 58.8473 67.4093C58.4053 67.7613 57.6993 68.22 57.0753 68.7253C56.1267 69.5013 55.2153 70.364 54.5107 70.95C53.6527 71.6647 52.2627 71.2727 52.476 69.9533ZM57.506 88.4073C57.5027 88.4047 57.5 88.4013 57.5 88.4013C57.494 88.392 57.49 88.386 57.4847 88.378C57.2193 88.0053 56.9713 87.6133 56.74 87.2147C56.6913 87.1267 56.6427 87.0367 56.592 86.9487C56.3613 86.5207 56.1453 86.088 55.9753 85.6327C55.6433 84.7507 56.1993 84.6207 56.57 84.8127C56.94 85.0107 58.0227 85.642 59.1793 85.886C59.886 86.0313 60.3053 85.6927 60.4713 85.1833C60.496 85.1073 60.528 85.0133 60.5627 84.9113C60.5827 84.8667 60.598 84.8187 60.6133 84.7693C60.6227 84.74 60.6313 84.7093 60.6427 84.6767C60.6573 84.6213 60.6707 84.5673 60.6827 84.51C60.6927 84.4807 60.696 84.45 60.7013 84.4207C60.7153 84.362 60.7213 84.3047 60.728 84.2447C60.7307 84.2153 60.7307 84.1873 60.734 84.1547C60.734 84.096 60.728 84.0387 60.7213 83.9787C60.718 83.9527 60.7147 83.9247 60.708 83.9C60.694 83.8367 60.6693 83.7767 60.6413 83.7167C60.6293 83.698 60.624 83.678 60.6147 83.6627C60.574 83.5933 60.5193 83.5293 60.454 83.4693C60.368 83.394 60.2607 83.324 60.122 83.27C59.1147 82.8653 56.2587 81.9633 54.114 77.9747C53.8033 77.4107 54.0973 76.9307 54.306 76.762C54.5153 76.5953 55.262 76.1193 55.6193 75.8987C55.9807 75.6773 56.47 75.7027 56.98 76.0547C57.47 76.4053 58.5347 77.1807 59.3887 77.1053C60.182 77.028 60.2613 76.7027 60.4027 76.4967C60.962 75.6807 62.4773 72.7167 66.4487 72.6687C68.0873 72.6473 69.622 72.7987 70.1713 72.7647C70.7147 72.7293 72.6527 72.5547 73.794 71.778C74.918 71.0053 75.3973 71.5613 74.748 72.4067C74.6513 72.5333 74.564 72.6447 74.482 72.756C74.45 72.796 74.4253 72.8313 74.396 72.8687C74.308 72.986 74.232 73.0973 74.1653 73.204C73.918 73.6227 73.8873 73.9853 74.3487 74.4827C75.0733 75.2533 75.262 75.3913 75.4973 75.5733C75.602 75.6567 75.7273 75.706 75.8733 75.7093C75.9333 75.7093 76 75.6967 76.0667 75.6787C76.0947 75.6693 76.122 75.6693 76.1547 75.6573C76.2547 75.6127 76.3607 75.552 76.4773 75.4533C76.8913 75.0873 77.1693 74.8693 77.5307 74.4027C77.7993 74.058 78.0267 74.4053 77.96 74.9447C77.9073 75.3647 78.096 78.0607 75.158 81.3753C75.062 81.4867 74.8387 81.6707 74.5607 81.9067C74.494 81.9607 74.4313 82.0147 74.3587 82.078C74.3227 82.1087 74.286 82.1447 74.25 82.1753C74.158 82.2553 74.0667 82.3407 73.972 82.4287C73.8967 82.498 73.82 82.5813 73.7433 82.6573C73.6647 82.736 73.5887 82.8087 73.5093 82.8933C73.4613 82.9447 73.4133 83.0047 73.364 83.062C73.2653 83.1733 73.1647 83.286 73.066 83.4093C73.0353 83.4513 73.006 83.494 72.978 83.5333C72.8667 83.6787 72.7587 83.8253 72.6613 83.9793C72.5367 84.1787 72.4207 84.3873 72.3193 84.6047C71.502 86.3487 71.608 86.924 71.5193 87.56C71.4393 88.19 70.95 88.4407 70.3993 88.6953C70.0673 88.848 69.1873 89.3567 68.212 90.0947L68.2173 90.09C67.9253 90.3093 67.628 90.5533 67.3333 90.8053C67.2767 90.8567 67.222 90.904 67.1693 90.9553C66.8747 91.2147 66.584 91.49 66.3153 91.7767C66.1373 91.964 65.954 92.1287 65.77 92.2773C65.7067 92.3267 65.648 92.3653 65.5853 92.41C65.456 92.504 65.322 92.592 65.19 92.6693C65.1207 92.71 65.046 92.748 64.9773 92.7793C64.844 92.846 64.7113 92.9 64.5747 92.9473C64.5027 92.972 64.4327 93.002 64.3607 93.02C64.3247 93.0293 64.2913 93.0447 64.2587 93.0553C64.174 93.074 64.0887 93.0767 64.004 93.0893C63.8987 93.108 63.794 93.128 63.6867 93.134C63.5693 93.14 63.4493 93.134 63.3287 93.128C63.2253 93.1167 63.12 93.1167 63.0193 93.1047C62.8953 93.086 62.7727 93.0473 62.6513 93.0133C62.5487 92.9867 62.446 92.9653 62.3413 92.9287C62.2253 92.884 62.1107 92.82 61.994 92.7633C61.8827 92.7093 61.776 92.666 61.668 92.5993C61.658 92.5913 61.6467 92.5887 61.6373 92.5827C61.4413 92.4587 61.2413 92.314 61.0413 92.15C60.526 91.7067 59.9613 91.1907 59.4027 90.628C59.388 90.6113 59.3733 90.596 59.3587 90.5833C59.3433 90.568 59.328 90.5493 59.314 90.532C59.0267 90.2413 58.7393 89.9313 58.46 89.608C58.436 89.578 57.784 88.7933 57.506 88.4073ZM92.8167 150.349C92.636 151.287 91.87 154.451 89.058 160.961C88.868 161.399 88.6833 161.823 88.5033 162.231C88.46 162.327 88.4153 162.419 88.3733 162.515C88.304 162.672 88.2313 162.831 88.1627 162.978C88.156 162.991 88.1527 163.003 88.1473 163.015C88.0453 163.242 87.942 163.454 87.8367 163.665C87.8367 163.665 87.8307 163.671 87.8307 163.679C87.8173 163.703 87.8027 163.731 87.786 163.758C87.7487 163.832 87.71 163.904 87.6733 163.974C87.6227 164.068 87.5747 164.169 87.5207 164.259C87.5207 164.269 87.5173 164.272 87.5147 164.277C87.502 164.295 87.49 164.314 87.4773 164.339C87.4293 164.422 87.36 164.543 87.3567 164.549C87.35 164.561 87.3413 164.573 87.3347 164.586C87.3347 164.586 87.3347 164.586 87.3347 164.593C87.2987 164.645 87.2673 164.697 87.236 164.747C87.2267 164.764 87.218 164.784 87.208 164.799C87.202 164.805 87.1973 164.813 87.188 164.823C87.1453 164.893 87.1 164.959 87.056 165.033C87.046 165.043 87.0373 165.051 87.0313 165.061C86.9807 165.135 86.9293 165.207 86.8793 165.277C86.8767 165.277 86.8687 165.29 86.86 165.295C86.8173 165.354 86.7713 165.413 86.7273 165.468C86.714 165.481 86.706 165.493 86.6967 165.499C86.646 165.567 86.592 165.621 86.5447 165.679C86.5373 165.679 86.5307 165.689 86.5253 165.697C86.4973 165.725 86.4647 165.753 86.4367 165.783H86.434C86.4193 165.802 86.4013 165.817 86.3827 165.833C86.3733 165.842 86.3587 165.851 86.3487 165.864C86.2947 165.913 86.2433 165.961 86.1893 165.997C86.1833 166.003 86.18 166.006 86.1713 166.01C86.1233 166.05 86.0727 166.083 86.022 166.114C86.008 166.123 85.9967 166.132 85.9833 166.139C85.974 166.145 85.9647 166.148 85.9587 166.152C85.948 166.161 85.9387 166.167 85.9293 166.167C85.892 166.191 85.8533 166.213 85.8147 166.235C85.8147 166.235 85.8087 166.235 85.802 166.238C85.7527 166.265 85.6987 166.284 85.6413 166.303C85.628 166.31 85.6147 166.317 85.5993 166.321C85.5393 166.339 85.482 166.356 85.4187 166.371C84.8347 166.497 84.21 166.587 83.8447 166.649C83.7907 166.655 83.4167 166.717 83.386 166.729C83.2333 166.751 83.0687 166.775 82.892 166.806C82.892 166.806 82.892 166.806 82.892 166.803C78.6713 167.513 67.1907 169.49 61.8653 170.566C58.3327 171.271 58.68 169.492 57.7933 166.281C57.4207 164.931 56.1087 152.987 56.7907 145.49C57.0193 143.001 57.1287 142.271 57.5753 141.997C58.0213 141.721 58.7047 141.277 58.91 141.218C59.11 141.165 59.7187 141.005 60.0027 141.517C60.2807 142.024 65.4367 152.485 68.8067 156.273C71.7967 159.65 73.8987 162.099 76.4193 163.744C76.586 163.855 76.7293 163.924 76.8593 163.967C76.872 163.973 76.8873 163.981 76.902 163.985C76.962 164.003 77.016 164.012 77.0673 164.019C77.118 164.025 77.1647 164.022 77.2093 164.019C77.2227 164.016 77.234 164.016 77.2473 164.012C77.3307 163.994 77.3973 163.953 77.448 163.901C77.454 163.895 77.4607 163.886 77.47 163.877C77.5173 163.818 77.552 163.744 77.5693 163.664C77.5727 163.651 77.5727 163.636 77.5727 163.623C77.642 163.233 77.4567 162.643 77.0867 162.243C76.5307 161.643 74.2273 159.273 71.1933 154.957C67.2687 149.387 64.6093 141.165 63.894 138.532C63.426 136.808 63.1633 134.089 63.2067 131.92C63.204 131.92 63.2007 131.92 63.2007 131.92C63.204 131.824 63.2067 131.741 63.212 131.649C63.2147 131.58 63.218 131.513 63.222 131.441C63.228 131.295 63.2347 131.151 63.2427 131.011C63.258 130.807 63.2733 130.609 63.2973 130.424C63.3073 130.343 63.3187 130.272 63.328 130.195C63.348 130.066 63.3673 129.941 63.386 129.827C63.3987 129.758 63.412 129.694 63.428 129.632C63.462 129.465 63.5007 129.311 63.5487 129.177C64.1593 127.433 64.6693 127.62 65.2093 128.205C65.7507 128.795 70.6227 133.216 78.6553 136.815C80.3613 137.579 81.3787 137.93 81.6113 138.181C81.8413 138.425 82.2087 138.941 81.4787 139.113C80.7573 139.284 78.6147 139.36 76.3713 140.247C76.2413 140.299 76.1213 140.352 76.0113 140.401C75.2267 140.753 74.8587 141.106 74.692 141.485C74.6593 141.559 74.6347 141.637 74.6167 141.715C74.6027 141.767 74.59 141.829 74.584 141.885C74.574 141.971 74.5707 142.057 74.574 142.144C74.574 142.201 74.5707 142.259 74.5767 142.318C74.5833 142.429 74.5953 142.541 74.6073 142.658C74.634 142.856 74.6613 143.06 74.6813 143.284C74.8 144.501 75.0107 145.37 75.1653 146.998C75.3167 148.632 75.2227 150.109 76.0193 150.798C76.8133 151.478 77.8973 151.882 80.7927 151.32C83.5393 150.785 84.454 150.551 84.7793 150.541C85.0987 150.531 85.87 150.402 85.3987 151.301C85.354 151.388 85.2953 151.493 85.226 151.62C84.5927 152.747 83.0587 155.288 82.536 156.981C81.9567 158.847 81.8393 159.363 81.7887 159.681C81.742 160.002 81.9633 160.62 82.5333 159.929C83.102 159.236 84.228 156.657 87.0567 153.373C87.436 152.934 87.784 152.548 88.1107 152.192C88.1133 152.192 88.1167 152.185 88.1233 152.179C88.3793 151.904 88.6173 151.654 88.8447 151.425C88.908 151.359 88.968 151.301 89.0287 151.243C89.222 151.055 89.4027 150.882 89.5713 150.718C89.616 150.68 89.6647 150.635 89.704 150.597C90.126 150.215 90.4887 149.92 90.8053 149.689C90.8373 149.671 90.8653 149.651 90.8947 149.631C91.0167 149.541 91.1373 149.46 91.2487 149.393C91.2793 149.375 91.312 149.353 91.3427 149.331C91.454 149.262 91.5593 149.205 91.6567 149.151C91.672 149.138 91.696 149.127 91.7133 149.117C91.7267 149.113 91.7353 149.104 91.744 149.099C91.8587 149.047 91.954 148.991 92.0513 148.947C92.8413 148.557 93.056 149.097 92.8167 150.349ZM97.4993 164.722C97.046 164.827 95.088 165.124 94.7853 165.129C94.4873 165.136 94.234 164.857 94.3607 164.643C94.4867 164.433 95.8347 162.679 96.5753 159.626C96.7 159.129 97.0113 158.783 97.2133 159.497C97.3693 160.019 97.974 162.615 98.1133 163.591C98.134 163.762 98.2387 164.549 97.4993 164.722ZM98.3207 139.825C97.034 140.308 95.6033 138.862 94.4453 138.089C91.8427 136.31 89.448 134.595 87.4833 132.195C84.474 128.521 84.7553 125.959 85.6293 121.213C86.2367 117.842 85.1353 114.672 84.8953 114.225C84.6573 113.777 84.926 113.323 85.638 113.656C86.3493 113.991 87.03 115.029 87.7607 115.919C88.4853 116.809 88.646 116.176 88.706 115.571C88.8447 114.175 88.53 113.057 88.356 112.409H88.352C88.3427 112.377 88.3347 112.338 88.328 112.304C88.226 111.917 87.866 111.055 87.1087 110.899C86.094 110.685 85.0967 110.595 84.5553 110.206C84.3033 110.025 84.0167 109.654 84.3007 109.382C84.8173 108.881 85.568 108.217 86.2813 107.973C87.2513 107.64 88.184 107.133 89.4127 107.139C97.7047 107.192 99.9407 105.273 103.111 103.958C103.732 103.697 104.105 103.581 104.637 103.748C105.171 103.909 106.621 104.453 106.987 105.097C107.355 105.744 107.419 108.438 108.127 110.381C108.825 112.331 110.015 110.311 110.275 109.477C110.525 108.639 110.623 106.647 110.637 106.143C110.649 105.639 110.797 103.513 111.464 102.797C112.789 101.381 113.101 99.7067 113.262 99.052C113.404 98.4647 113.515 96.8227 113.225 94.49C113.193 94.2027 113.151 93.9013 113.1 93.5927C112.652 90.7793 112.086 90.5413 111.323 90.03C110.558 89.52 109.757 89.7413 107.809 88.4067C106.066 87.208 104.484 85.1133 103.165 83.8353C101.851 82.5593 99.7727 81.276 97.5807 81.05C97.442 81.0373 97.3207 81.0347 97.2093 81.0347C97.2 81.0347 97.1947 81.0347 97.1847 81.0347C97.0873 81.0407 96.9953 81.0473 96.9167 81.064C96.9013 81.0667 96.892 81.0733 96.8747 81.0767C96.8053 81.0893 96.742 81.1073 96.688 81.1293C96.6733 81.14 96.66 81.1493 96.642 81.156C96.6 81.1807 96.5587 81.204 96.5247 81.2313C96.5093 81.2467 96.4967 81.262 96.48 81.2793C96.4553 81.304 96.4307 81.3307 96.4133 81.3613C96.398 81.3827 96.3887 81.4093 96.3753 81.434C96.366 81.4607 96.352 81.482 96.346 81.5067C96.3333 81.5453 96.3273 81.5827 96.3213 81.624C96.3213 81.6393 96.3187 81.652 96.3187 81.6687C96.3153 81.7227 96.3153 81.7787 96.3213 81.8353H96.3187C96.3633 82.3773 96.754 83.0387 96.8533 83.3107C96.992 83.68 97.3427 84.8093 96.7207 85.4673C96.094 86.1253 92.43 89.4033 88.9987 89.3213C87.448 89.286 86.154 88.9673 85.068 88.504C85.074 88.51 85.078 88.5147 85.0813 88.5207C85.0353 88.5007 84.9967 88.476 84.9487 88.454C84.6893 88.34 84.4433 88.216 84.2087 88.086C84.1713 88.0647 84.1267 88.046 84.0847 88.0227C83.8213 87.8713 83.58 87.712 83.35 87.5487C83.2807 87.4973 83.214 87.4467 83.1473 87.3973C82.9727 87.2647 82.806 87.1287 82.65 86.9893C82.604 86.9473 82.5507 86.906 82.5047 86.8653C82.318 86.6873 82.1447 86.5133 81.9827 86.34C81.9427 86.292 81.9073 86.2473 81.8667 86.204C81.7427 86.0607 81.6293 85.918 81.52 85.7793C81.486 85.7347 81.4533 85.6947 81.4227 85.6493C81.2993 85.4747 81.1853 85.308 81.088 85.1473C81.0747 85.1273 81.068 85.112 81.0553 85.0933C80.9707 84.9467 80.898 84.8073 80.834 84.6807C80.8187 84.6467 80.802 84.616 80.786 84.58C80.7227 84.444 80.6687 84.3113 80.632 84.2C80.1313 82.694 81.3747 79.1347 81.3307 76.586C81.3153 75.4693 81.0847 73.3267 80.9133 71.84C80.7427 70.3527 81.5267 68.3507 81.8913 67.8653C81.9733 67.7587 82.0967 67.6567 82.2387 67.5567C82.2747 67.53 82.3147 67.5087 82.3527 67.484C82.4853 67.3973 82.6373 67.3153 82.8093 67.24C82.834 67.2273 82.8573 67.2153 82.8853 67.2013C83.0533 67.132 83.2327 67.0593 83.428 66.996V67.0053C83.748 66.8953 84.0927 66.7933 84.47 66.7087C85.692 66.4367 87.1207 67.0413 87.488 68.05C88.7653 71.5687 90.1807 72.312 90.6547 72.542C91.136 72.7767 91.892 72.08 92.1887 71.8233C92.4867 71.5747 93.2047 70.6307 92.886 70.2167C92.3947 69.588 92.1253 69.202 91.9833 68.8093C91.7427 68.1453 92.6107 68.1313 92.816 68.224C95.4313 69.332 96.684 69.5647 99.216 69.48C101.743 69.4013 105.675 67.736 106.161 67.7267C106.558 67.7173 107.342 67.9613 107.636 68.3693C107.685 68.4387 107.751 68.5373 107.813 68.6347C108.066 69.0113 108.406 69.5167 108.709 69.622C108.722 69.6247 108.73 69.6313 108.743 69.6347C109.117 69.7273 110.009 69.6593 110.482 69.6793C111.121 69.7013 112.231 69.48 112.199 70.654C112.129 73.7887 109.651 75.744 109.425 75.934C109.339 76.0127 109.289 76.1133 109.245 76.2153C109.232 76.2433 109.208 76.2727 109.203 76.3033C109.189 76.3607 109.178 76.418 109.178 76.472C109.178 76.5287 109.185 76.58 109.197 76.6233C109.255 76.81 109.523 77.4867 109.638 77.6707C109.679 77.7373 109.728 77.8007 109.791 77.8607C109.807 77.876 109.833 77.8887 109.851 77.9053C109.9 77.9427 109.949 77.978 110.005 78.0027C110.033 78.018 110.07 78.0213 110.103 78.032C110.155 78.0447 110.214 78.0567 110.273 78.0533C110.311 78.0533 110.357 78.0407 110.394 78.032C110.487 78.012 110.573 77.9933 110.672 77.9333C112.772 76.6773 113.626 75.1927 114.54 73.3267C115.451 71.4693 115.931 65.3353 115.983 64.3293C116.035 63.316 116.354 62.6933 116.851 62.286C117.345 61.8767 119.799 60.3053 120.145 60.2253C120.497 60.1433 120.899 60.1093 121.294 61.024C121.697 61.9447 122.573 67.6 122.74 68.4693C122.929 69.3933 123.407 69.2833 123.649 69.106C124.173 68.7227 124.553 68.2513 125.021 67.4487C125.503 66.6453 125.15 65.5373 124.681 65.0213C124.218 64.5027 123.485 63.674 123.797 62.8513C124.507 60.982 126.001 61.076 126.401 61.1427C126.794 61.2093 128.307 61.8907 128.581 65.964C128.976 71.998 126.515 78.2373 125.929 79.8193C124.631 83.3367 124.359 85.7313 124.159 86.8713C123.964 88.0067 123.102 87.8013 122.895 87.6173C122.685 87.434 122.415 86.5547 122.283 86.4247C122.147 86.2947 121.807 86.3613 121.584 87.33C121.362 88.2967 120.621 89.6393 120.187 90.37C119.896 90.844 119.95 91.524 120.02 92.052C120.15 93.078 120.684 97.0033 120.521 101.466C120.225 109.406 117.57 114.407 115.59 117.025C110.931 123.186 106.562 125.761 106.037 126.126C105.363 126.596 104.236 126.523 103.859 126.398C103.475 126.29 103.139 125.894 102.422 125.383C102.363 125.337 102.305 125.312 102.255 125.286C101.686 125.023 101.601 125.824 101.606 126.033C101.613 126.256 101.957 127.081 102.152 127.881C102.524 129.389 101.686 131.211 100.824 132.65C99.594 134.684 98.2213 136.92 98.508 139.377C98.5047 139.595 98.5047 139.755 98.3207 139.825ZM137.799 142.174C138.501 146.21 139.291 151.128 140.184 157.157C140.23 157.475 140.264 157.747 140.289 158C140.295 158.031 140.302 158.066 140.302 158.096C140.327 158.334 140.339 158.551 140.339 158.729C140.339 158.748 140.337 158.764 140.337 158.779C140.337 158.859 140.337 158.945 140.33 159.014C140.32 159.083 140.309 159.14 140.295 159.199C140.295 159.223 140.289 159.248 140.289 159.27C140.258 159.393 140.216 159.499 140.16 159.588C140.153 159.601 140.142 159.613 140.129 159.631C140.08 159.699 140.017 159.761 139.952 159.811C139.931 159.826 139.911 159.842 139.887 159.86C139.803 159.913 139.71 159.959 139.595 159.996C139.568 160.009 139.527 160.013 139.491 160.027C139.404 160.055 139.309 160.079 139.206 160.107C139.141 160.121 139.077 160.132 139.011 160.15C138.876 160.177 138.731 160.206 138.577 160.236C138.292 160.295 137.875 160.354 137.585 160.378C137.085 160.427 136.501 160.477 135.865 160.533C129.716 161.095 117.683 162.315 108.043 163.529C107.861 163.547 107.675 163.567 107.477 163.598C106.727 163.703 106.291 163.583 106.232 162.847C106.186 162.17 105.058 155.478 101.651 149.777C101.338 149.252 101.008 148.733 100.659 148.231C100.27 147.671 100.847 147.245 101.397 147.439C102.941 147.981 107.217 149.938 113.317 154.303C114.874 155.416 115.279 155.762 115.628 156.059C115.674 156.099 115.746 156.139 115.81 156.17C115.835 156.183 115.863 156.188 115.893 156.201C115.935 156.216 115.989 156.232 116.042 156.244C116.07 156.25 116.097 156.257 116.125 156.259C116.184 156.265 116.243 156.268 116.295 156.265C116.32 156.265 116.341 156.265 116.361 156.265C116.431 156.255 116.5 156.234 116.556 156.199C116.698 156.11 116.763 155.937 116.652 155.637C116.273 154.568 114.233 152.467 109.015 147.625C108.27 146.937 108.257 146.646 109.029 146.565C109.799 146.492 111.891 146.587 113.003 146.541C114.118 146.492 116.608 146.423 116.12 143.164C115.746 140.64 115.453 138.029 115.407 137.248C115.365 136.469 115.227 135.013 113.405 134.807C111.594 134.599 108.557 135.02 105.833 135.975C105.082 136.235 104.817 135.889 105.373 135.381C105.926 134.878 110.709 131.766 114.784 127.086C119.264 121.933 121.235 118.142 122.353 114.694C122.555 114.082 122.813 114.29 123.064 114.43C123.311 114.576 124.992 115.935 125.588 119.277C126.172 122.626 127.331 127.273 125.289 139.477C124.167 146.163 122.795 150.111 122.477 151.054C122.156 151.987 122.705 152.513 123.323 151.676C124.763 149.71 126.667 144.261 128.274 137.995C129.856 131.813 130.429 126.513 130.672 123.116V123.113C130.697 122.801 130.718 122.507 130.733 122.226L130.743 122.112C130.757 121.837 130.771 121.573 130.789 121.337C130.789 121.191 130.807 121.077 130.832 120.972C130.839 120.941 130.85 120.916 130.86 120.889C130.875 120.842 130.888 120.79 130.905 120.753C130.905 120.746 130.913 120.746 130.913 120.74C130.943 120.681 130.981 120.632 131.013 120.594C131.024 120.581 131.032 120.569 131.041 120.563C131.072 120.535 131.1 120.523 131.128 120.508C131.149 120.498 131.171 120.483 131.191 120.476C131.208 120.473 131.221 120.473 131.239 120.47C131.274 120.463 131.308 120.457 131.338 120.457C131.351 120.457 131.363 120.457 131.378 120.463C131.393 120.463 131.413 120.463 131.425 120.463C131.436 120.463 131.443 120.473 131.449 120.473C131.573 120.495 131.686 120.544 131.773 120.581C132.092 120.706 133.501 121.113 134.235 124.493C134.265 124.629 134.297 124.777 134.333 124.924C134.339 124.973 134.351 125.029 134.364 125.078C134.399 125.214 134.429 125.35 134.462 125.499L134.469 125.523C135.078 128.181 136.181 132.779 137.799 142.174Z" fill="black"/>
<path d="M111.804 147.932H112.489V149.681H112.903V147.932H113.587V147.581H111.804V147.932Z" fill="black"/>
<path d="M115.073 149.082L114.544 147.581H113.948V149.681H114.331V147.991L114.915 149.681H115.252L115.827 147.991V149.681H116.209V147.581H115.613L115.073 149.082Z" fill="black"/>
</svg>
